<mxfile host="app.diagrams.net" modified="2024-05-24T05:16:35.066Z" agent="Mozilla/5.0 (Macintosh; Intel Mac OS X 10_15_7) AppleWebKit/537.36 (KHTML, like Gecko) Chrome/125.0.0.0 Safari/537.36" version="24.4.7" etag="qGyGUzzcj2e7mWOUtrxr" type="github">
  <diagram name="Page-1" id="JJfQQCOV-2JyjE_-qasc">
    <mxGraphModel>
      <root>
        <mxCell id="0" />
        <mxCell id="1" parent="0" />
      </root>
    </mxGraphModel>
  </diagram>
</mxfile>
